<?xml version="1.0" encoding="UTF-8"?>
<svg xmlns="http://www.w3.org/2000/svg" xmlns:xlink="http://www.w3.org/1999/xlink" width="299.27pt" height="273.46pt" viewBox="0 0 299.27 273.46" version="1.1">
<defs>
<clipPath id="clip1">
  <path d="M 66 237 L 75 237 L 75 273.460938 L 66 273.460938 Z M 66 237 "/>
</clipPath>
<clipPath id="clip2">
  <path d="M 283 235 L 299.269531 235 L 299.269531 265 L 283 265 Z M 283 235 "/>
</clipPath>
</defs>
<g id="surface1">
<path style=" stroke:none;fill-rule:nonzero;fill:rgb(0%,0.799561%,7.099915%);fill-opacity:1;" d="M 43.992188 245.101563 L 43.992188 239.503906 L 48.988281 239.476563 L 48.988281 245.101563 L 53.425781 245.101563 L 53.425781 248.875 L 48.988281 248.875 L 48.988281 258.125 C 48.988281 259.816406 49.4375 261.398438 51.339844 261.398438 C 52.234375 261.398438 53.089844 261.203125 53.613281 260.859375 L 53.761719 264.941406 C 52.71875 265.25 51.5625 265.402344 50.070313 265.402344 C 46.15625 265.402344 43.992188 262.902344 43.992188 258.972656 L 43.992188 245.101563 "/>
<g clip-path="url(#clip1)" clip-rule="nonzero">
<path style=" stroke:none;fill-rule:nonzero;fill:rgb(0%,0.799561%,7.099915%);fill-opacity:1;" d="M 69.65625 237.90625 L 74.652344 237.90625 L 74.652344 242.839844 L 69.65625 242.839844 Z M 66.597656 269.234375 C 69.28125 269.078125 69.65625 268.796875 69.65625 265.714844 L 69.65625 245.101563 L 74.652344 245.101563 L 74.652344 266.40625 C 74.652344 268.992188 74.464844 273.410156 69.46875 273.410156 C 68.648438 273.410156 67.046875 273.550781 66.414063 273.355469 L 66.597656 269.234375 "/>
</g>
<path style=" stroke:none;fill-rule:nonzero;fill:rgb(0%,0.799561%,7.099915%);fill-opacity:1;" d="M 86.617188 261.628906 C 88.144531 261.628906 89.339844 260.9375 90.121094 259.855469 C 90.941406 258.738281 91.164063 257.3125 91.164063 255.773438 L 89.003906 255.773438 C 86.765625 255.773438 83.449219 256.160156 83.449219 259.203125 C 83.449219 260.898438 84.828125 261.628906 86.617188 261.628906 Z M 80.765625 246.140625 C 82.703125 245.214844 85.3125 244.640625 87.4375 244.640625 C 93.289063 244.640625 95.714844 247.144531 95.714844 253 L 95.714844 255.539063 C 95.714844 257.546875 95.75 259.050781 95.789063 260.511719 C 95.824219 262.015625 95.898438 263.402344 96.011719 264.941406 L 91.613281 264.941406 C 91.425781 263.902344 91.425781 262.59375 91.390625 261.976563 L 91.316406 261.976563 C 90.160156 264.171875 87.660156 265.402344 85.386719 265.402344 C 81.996094 265.402344 78.675781 263.285156 78.675781 259.511719 C 78.675781 256.542969 80.054688 254.8125 81.957031 253.847656 C 83.859375 252.882813 86.320313 252.691406 88.40625 252.691406 L 91.164063 252.691406 C 91.164063 249.492188 89.785156 248.414063 86.839844 248.414063 C 84.714844 248.414063 82.589844 249.261719 80.914063 250.570313 L 80.765625 246.140625 "/>
<path style=" stroke:none;fill-rule:nonzero;fill:rgb(0%,0.799561%,7.099915%);fill-opacity:1;" d="M 101.597656 245.101563 L 106.03125 245.101563 L 106.03125 249.609375 L 106.105469 249.609375 C 106.328125 247.757813 108.382813 244.640625 111.363281 244.640625 C 111.847656 244.640625 112.367188 244.640625 112.890625 244.792969 L 112.890625 249.992188 C 112.441406 249.726563 111.546875 249.570313 110.652344 249.570313 C 106.589844 249.570313 106.589844 254.8125 106.589844 257.660156 L 106.589844 264.941406 L 101.597656 264.941406 L 101.597656 245.101563 "/>
<path style=" stroke:none;fill-rule:nonzero;fill:rgb(0%,0.799561%,7.099915%);fill-opacity:1;" d="M 116.691406 245.015625 L 121.6875 245.015625 L 121.6875 264.855469 L 116.691406 264.855469 Z M 116.691406 237.734375 L 121.6875 237.734375 L 121.6875 242.667969 L 116.691406 242.667969 L 116.691406 237.734375 "/>
<path style=" stroke:none;fill-rule:nonzero;fill:rgb(0%,0.799561%,7.099915%);fill-opacity:1;" d="M 124.101563 245.101563 L 129.394531 245.101563 L 133.644531 259.78125 L 133.71875 259.78125 L 137.597656 245.101563 L 143.410156 245.101563 L 147.585938 259.78125 L 147.660156 259.78125 L 151.648438 245.101563 L 156.421875 245.101563 L 150.53125 264.941406 L 144.640625 264.941406 L 140.464844 249.800781 L 140.390625 249.800781 L 136.289063 264.941406 L 130.585938 264.941406 L 124.101563 245.101563 "/>
<path style=" stroke:none;fill-rule:nonzero;fill:rgb(0%,0.799561%,7.099915%);fill-opacity:1;" d="M 165.347656 261.628906 C 166.878906 261.628906 168.070313 260.9375 168.851563 259.855469 C 169.671875 258.738281 169.894531 257.3125 169.894531 255.773438 L 167.734375 255.773438 C 165.496094 255.773438 162.179688 256.160156 162.179688 259.203125 C 162.179688 260.898438 163.558594 261.628906 165.347656 261.628906 Z M 159.496094 246.140625 C 161.433594 245.214844 164.042969 244.640625 166.167969 244.640625 C 172.019531 244.640625 174.445313 247.144531 174.445313 253 L 174.445313 255.539063 C 174.445313 257.546875 174.480469 259.050781 174.519531 260.511719 C 174.554688 262.015625 174.628906 263.402344 174.742188 264.941406 L 170.34375 264.941406 C 170.15625 263.902344 170.15625 262.59375 170.121094 261.976563 L 170.046875 261.976563 C 168.890625 264.171875 166.390625 265.402344 164.117188 265.402344 C 160.726563 265.402344 157.40625 263.285156 157.40625 259.511719 C 157.40625 256.542969 158.789063 254.8125 160.6875 253.847656 C 162.589844 252.882813 165.050781 252.691406 167.136719 252.691406 L 169.894531 252.691406 C 169.894531 249.492188 168.515625 248.414063 165.574219 248.414063 C 163.449219 248.414063 161.324219 249.261719 159.644531 250.570313 L 159.496094 246.140625 "/>
<path style=" stroke:none;fill-rule:nonzero;fill:rgb(0%,0.799561%,7.099915%);fill-opacity:1;" d="M 180.171875 245.101563 L 180.171875 242.328125 C 180.171875 238.359375 182.332031 235.582031 186.285156 235.582031 C 187.554688 235.582031 188.542969 235.523438 189.511719 235.75 L 189.527344 239.691406 C 189.082031 239.421875 188.105469 239.507813 187.027344 239.507813 C 185.347656 239.507813 185.164063 241.09375 185.164063 242.632813 L 185.164063 245.101563 L 189.527344 245.101563 L 189.527344 248.875 L 185.164063 248.875 L 185.164063 264.941406 L 180.171875 264.941406 L 180.171875 245.101563 "/>
<path style=" stroke:none;fill-rule:nonzero;fill:rgb(0%,0.799561%,7.099915%);fill-opacity:1;" d="M 200.320313 261.542969 C 201.847656 261.542969 203.042969 260.851563 203.824219 259.773438 C 204.644531 258.652344 204.867188 257.230469 204.867188 255.6875 L 202.707031 255.6875 C 200.46875 255.6875 197.152344 256.074219 197.152344 259.117188 C 197.152344 260.8125 198.53125 261.542969 200.320313 261.542969 Z M 194.46875 246.058594 C 196.40625 245.132813 199.015625 244.554688 201.140625 244.554688 C 206.992188 244.554688 209.414063 247.058594 209.414063 252.914063 L 209.414063 255.457031 C 209.414063 257.460938 209.453125 258.964844 209.488281 260.425781 C 209.527344 261.929688 209.601563 263.316406 209.714844 264.855469 L 205.316406 264.855469 C 205.128906 263.816406 205.128906 262.507813 205.09375 261.890625 L 205.015625 261.890625 C 203.863281 264.089844 201.363281 265.320313 199.089844 265.320313 C 195.699219 265.320313 192.378906 263.199219 192.378906 259.425781 C 192.378906 256.460938 193.761719 254.726563 195.660156 253.761719 C 197.5625 252.800781 200.023438 252.605469 202.109375 252.605469 L 204.867188 252.605469 C 204.867188 249.40625 203.488281 248.328125 200.542969 248.328125 C 198.417969 248.328125 196.292969 249.175781 194.617188 250.484375 L 194.46875 246.058594 "/>
<path style=" stroke:none;fill-rule:nonzero;fill:rgb(93.699646%,25.898743%,15.299988%);fill-opacity:1;" d="M 229.625 246.511719 C 225.191406 246.511719 223.800781 251.214844 223.800781 254.855469 C 223.800781 258.5 225.304688 263.203125 229.625 263.203125 C 234.253906 263.203125 235.449219 258.738281 235.449219 254.855469 C 235.449219 250.980469 234.253906 246.511719 229.625 246.511719 Z M 221.375 235.460938 L 223.800781 235.460938 L 223.800781 248.234375 L 223.878906 248.234375 C 224.226563 247.257813 226.15625 244.394531 230.011719 244.394531 C 235.796875 244.394531 238.109375 248.785156 238.109375 254.855469 C 238.109375 260.773438 235.410156 265.320313 230.011719 265.320313 C 227.195313 265.320313 225.191406 264.222656 223.878906 261.675781 L 223.800781 261.675781 L 223.800781 264.851563 L 221.375 264.851563 L 221.375 235.460938 "/>
<path style=" stroke:none;fill-rule:nonzero;fill:rgb(93.699646%,25.898743%,15.299988%);fill-opacity:1;" d="M 254.113281 254.777344 L 253.421875 254.777344 C 249.214844 254.777344 244.203125 255.210938 244.203125 259.597656 C 244.203125 262.226563 246.054688 263.203125 248.292969 263.203125 C 254 263.203125 254.113281 258.148438 254.113281 255.992188 Z M 254.347656 261.636719 L 254.269531 261.636719 C 253.1875 264.027344 250.449219 265.320313 248.019531 265.320313 C 242.429688 265.320313 241.542969 261.480469 241.542969 259.679688 C 241.542969 252.976563 248.5625 252.664063 253.652344 252.664063 L 254.113281 252.664063 L 254.113281 251.644531 C 254.113281 248.234375 252.917969 246.511719 249.640625 246.511719 C 247.597656 246.511719 245.667969 246.980469 243.855469 248.15625 L 243.855469 245.765625 C 245.359375 245.023438 247.90625 244.394531 249.640625 244.394531 C 254.5 244.394531 256.542969 246.628906 256.542969 251.839844 L 256.542969 260.65625 C 256.542969 262.265625 256.542969 263.480469 256.738281 264.851563 L 254.347656 264.851563 L 254.347656 261.636719 "/>
<path style=" stroke:none;fill-rule:nonzero;fill:rgb(93.699646%,25.898743%,15.299988%);fill-opacity:1;" d="M 262.328125 249.566406 C 262.328125 248.039063 262.328125 246.472656 262.175781 244.867188 L 264.527344 244.867188 L 264.527344 248.433594 L 264.605469 248.433594 C 265.414063 246.628906 266.878906 244.394531 270.96875 244.394531 C 275.828125 244.394531 277.679688 247.6875 277.679688 252.074219 L 277.679688 264.851563 L 275.25 264.851563 L 275.25 252.703125 C 275.25 248.941406 273.9375 246.511719 270.582031 246.511719 C 266.148438 246.511719 264.757813 250.46875 264.757813 253.800781 L 264.757813 264.851563 L 262.328125 264.851563 L 262.328125 249.566406 "/>
<g clip-path="url(#clip2)" clip-rule="nonzero">
<path style=" stroke:none;fill-rule:nonzero;fill:rgb(93.699646%,25.898743%,15.299988%);fill-opacity:1;" d="M 283.773438 235.460938 L 286.203125 235.460938 L 286.203125 253.054688 L 294.992188 244.867188 L 298.117188 244.867188 L 288.515625 253.722656 L 299.273438 264.851563 L 295.921875 264.851563 L 286.203125 254.582031 L 286.203125 264.851563 L 283.773438 264.851563 L 283.773438 235.460938 "/>
</g>
<path style=" stroke:none;fill-rule:nonzero;fill:rgb(0%,0.799561%,7.099915%);fill-opacity:1;" d="M 58.945313 245.34375 L 63.941406 245.34375 L 63.941406 265.183594 L 58.945313 265.183594 Z M 58.945313 238.0625 L 63.941406 238.0625 L 63.941406 242.996094 L 58.945313 242.996094 L 58.945313 238.0625 "/>
<path style=" stroke:none;fill-rule:nonzero;fill:rgb(0%,0.799561%,7.099915%);fill-opacity:1;" d="M 30.351563 245.105469 L 30.351563 239.507813 L 35.347656 239.480469 L 35.347656 245.105469 L 39.785156 245.105469 L 39.785156 248.878906 L 35.347656 248.878906 L 35.347656 258.125 C 35.347656 259.820313 35.796875 261.402344 37.695313 261.402344 C 38.589844 261.402344 39.449219 261.207031 39.96875 260.863281 L 40.117188 264.945313 C 39.078125 265.253906 37.921875 265.40625 36.429688 265.40625 C 32.515625 265.40625 30.351563 262.902344 30.351563 258.972656 L 30.351563 245.105469 "/>
<path style=" stroke:none;fill-rule:nonzero;fill:rgb(0%,0.799561%,7.099915%);fill-opacity:1;" d="M 1.011719 264.78125 L 7.648438 264.78125 L 15.167969 246.816406 L 22.785156 264.585938 L 29.714844 264.585938 L 16.632813 236.273438 C 16.632813 236.273438 16.183594 235.441406 15.207031 235.441406 C 14.230469 235.441406 13.703125 236.46875 13.703125 236.46875 L 1.011719 264.78125 "/>
<path style=" stroke:none;fill-rule:nonzero;fill:rgb(0%,0.799561%,7.099915%);fill-opacity:1;" d="M 17.523438 260.898438 L 13.023438 260.898438 L 13.023438 256.398438 L 17.523438 256.398438 L 17.523438 260.898438 "/>
<path style=" stroke:none;fill-rule:nonzero;fill:rgb(96.899414%,57.598877%,11.399841%);fill-opacity:1;" d="M 242.148438 154.292969 L 53.542969 154.292969 L 53.542969 0 L 242.148438 0 L 242.148438 154.292969 "/>
<path style=" stroke:none;fill-rule:nonzero;fill:rgb(93.699646%,26.298523%,15.299988%);fill-opacity:1;" d="M 242.09375 55.402344 L 242.09375 154.042969 L 53.488281 154.042969 L 53.488281 100.859375 L 72.75 100.859375 C 72.75 100.859375 74.082031 100.726563 75.679688 98.863281 C 77.148438 97.144531 100.308594 70.234375 100.308594 70.234375 L 128.269531 101.65625 C 128.269531 101.65625 129.160156 103.148438 132.277344 103.148438 C 135.378906 103.148438 136.523438 101.523438 136.523438 101.523438 L 164.617188 69.96875 L 192.183594 101.65625 C 192.183594 101.65625 193.40625 103.40625 196.839844 103.417969 C 200.164063 103.429688 201.503906 101.65625 201.503906 101.65625 L 241.839844 55.457031 L 242.085938 55.183594 L 242.09375 55.402344 "/>
<path style=" stroke:none;fill-rule:nonzero;fill:rgb(4.299927%,2.398682%,9.399414%);fill-opacity:1;" d="M 53.414063 101.105469 L 72.71875 101.105469 C 72.71875 101.105469 74.050781 100.976563 75.648438 99.109375 C 77.117188 97.394531 100.28125 70.484375 100.28125 70.484375 L 128.238281 101.90625 C 128.238281 101.90625 129.128906 103.398438 132.246094 103.398438 C 135.347656 103.394531 136.496094 101.773438 136.496094 101.773438 L 164.589844 70.21875 L 192.15625 101.90625 C 192.15625 101.90625 193.375 103.65625 196.808594 103.667969 C 200.132813 103.679688 201.476563 101.90625 201.476563 101.90625 L 241.808594 55.707031 L 222.773438 55.707031 C 222.773438 55.707031 221.175781 55.839844 219.441406 57.703125 C 218.460938 58.757813 196.808594 84.332031 196.808594 84.332031 L 169.113281 52.378906 C 169.113281 52.378906 167.832031 50.410156 164.503906 50.410156 C 161.171875 50.410156 159.800781 52.511719 159.800781 52.511719 L 132.5 83.53125 L 104.683594 52.511719 C 104.683594 52.511719 103.15625 50.324219 100.160156 50.355469 C 96.929688 50.386719 95.753906 52.242188 95.753906 52.242188 L 53.414063 101.105469 "/>
<path style=" stroke:none;fill-rule:nonzero;fill:rgb(4.299927%,2.398682%,9.399414%);fill-opacity:1;" d="M 105.484375 97.777344 L 94.433594 97.777344 L 94.433594 86.726563 L 105.484375 86.726563 L 105.484375 97.777344 "/>
<path style=" stroke:none;fill-rule:nonzero;fill:rgb(93.699646%,26.298523%,15.299988%);fill-opacity:1;" d="M 32.15625 193.109375 L 38.824219 193.109375 L 13.136719 203.109375 L 22.546875 203.109375 C 22.546875 203.109375 33.210938 202.855469 35.488281 214.09375 L 45.6875 214.09375 L 45.6875 204.875 L 49.019531 204.875 L 49.019531 213.894531 L 63.136719 213.894531 L 63.136719 204.875 L 66.273438 204.875 L 66.273438 216.640625 C 66.273438 216.640625 66.078125 217.816406 65.097656 217.816406 C 64.117188 217.816406 0 217.816406 0 217.816406 L 0 214.117188 L 32.390625 214.117188 C 32.390625 214.117188 29.761719 206.035156 22.105469 205.808594 C 15.046875 205.601563 5.425781 206.082031 0.390625 207.621094 L 0.390625 204.679688 L 32.15625 193.109375 "/>
<path style=" stroke:none;fill-rule:nonzero;fill:rgb(93.699646%,25.898743%,15.299988%);fill-opacity:1;" d="M 49.019531 203.109375 L 45.6875 203.109375 L 45.6875 199.386719 L 49.019531 199.386719 L 49.019531 203.109375 "/>
<path style=" stroke:none;fill-rule:nonzero;fill:rgb(93.699646%,25.898743%,15.299988%);fill-opacity:1;" d="M 66.570313 223.601563 L 63.234375 223.601563 L 63.234375 219.875 L 66.570313 219.875 L 66.570313 223.601563 "/>
<path style=" stroke:none;fill-rule:nonzero;fill:rgb(0%,0.799561%,7.099915%);fill-opacity:1;" d="M 108.414063 200.519531 C 104.980469 200.519531 104.726563 204.035156 104.726563 204.035156 L 104.726563 206.621094 L 113.691406 206.621094 L 113.691406 200.554688 C 113.691406 200.554688 111.847656 200.519531 108.414063 200.519531 Z M 78.855469 189.457031 L 84.855469 189.457031 L 84.855469 213.082031 L 113.730469 213.082031 L 113.730469 210.207031 L 100.855469 210.207031 L 100.855469 203.082031 C 100.855469 203.082031 101.480469 196.332031 108.855469 196.332031 C 116.230469 196.332031 118.605469 196.332031 118.605469 196.332031 L 118.605469 214.207031 C 118.605469 214.207031 118.605469 217.832031 115.230469 217.832031 C 111.855469 217.832031 82.355469 217.832031 82.355469 217.832031 C 82.355469 217.832031 78.730469 217.707031 78.730469 214.207031 C 78.730469 210.707031 78.855469 189.457031 78.855469 189.457031 "/>
<path style=" stroke:none;fill-rule:nonzero;fill:rgb(0%,0.799561%,7.099915%);fill-opacity:1;" d="M 113.691406 194.234375 L 107.785156 194.234375 L 107.785156 188.328125 L 113.691406 188.328125 L 113.691406 194.234375 "/>
<path style=" stroke:none;fill-rule:nonzero;fill:rgb(0%,0.799561%,7.099915%);fill-opacity:1;" d="M 172.816406 226.234375 L 166.910156 226.234375 L 166.910156 220.328125 L 172.816406 220.328125 L 172.816406 226.234375 "/>
<path style=" stroke:none;fill-rule:nonzero;fill:rgb(0%,0.799561%,7.099915%);fill-opacity:1;" d="M 181.816406 226.234375 L 175.910156 226.234375 L 175.910156 220.328125 L 181.816406 220.328125 L 181.816406 226.234375 "/>
<path style=" stroke:none;fill-rule:nonzero;fill:rgb(0%,0.799561%,7.099915%);fill-opacity:1;" d="M 251.816406 226.234375 L 245.910156 226.234375 L 245.910156 220.328125 L 251.816406 220.328125 L 251.816406 226.234375 "/>
<path style=" stroke:none;fill-rule:nonzero;fill:rgb(0%,0.799561%,7.099915%);fill-opacity:1;" d="M 262.316406 200.234375 L 256.410156 200.234375 L 256.410156 194.328125 L 262.316406 194.328125 L 262.316406 200.234375 "/>
<path style=" stroke:none;fill-rule:nonzero;fill:rgb(0%,0.799561%,7.099915%);fill-opacity:1;" d="M 271.316406 200.234375 L 265.410156 200.234375 L 265.410156 194.328125 L 271.316406 194.328125 L 271.316406 200.234375 "/>
<path style=" stroke:none;fill-rule:nonzero;fill:rgb(0%,0.799561%,7.099915%);fill-opacity:1;" d="M 295.984375 218.082031 L 289.859375 218.082031 L 289.859375 189.332031 L 295.984375 189.332031 L 295.984375 218.082031 "/>
<path style=" stroke:none;fill-rule:nonzero;fill:rgb(4.299927%,2.398682%,9.399414%);fill-opacity:1;" d="M 279.605469 189.082031 L 285.484375 189.082031 L 285.484375 214.457031 C 285.484375 214.457031 285.605469 217.957031 282.355469 217.957031 C 279.109375 217.957031 214.484375 217.957031 214.484375 217.957031 C 214.484375 217.957031 211.484375 217.707031 211.484375 214.582031 C 211.484375 211.457031 211.484375 189.082031 211.484375 189.082031 L 217.355469 189.082031 L 217.355469 213.207031 L 245.609375 213.207031 L 245.609375 208.957031 C 245.609375 208.957031 245.234375 204.707031 235.859375 204.707031 C 226.484375 204.707031 222.734375 207.957031 222.734375 207.957031 L 222.734375 202.957031 C 222.734375 202.957031 226.484375 199.957031 235.609375 199.957031 C 244.734375 199.957031 250.734375 204.707031 250.984375 208.707031 L 251.234375 213.207031 L 260.609375 213.207031 L 260.609375 202.707031 L 266.859375 202.707031 L 266.859375 213.332031 L 279.734375 213.332031 L 279.605469 189.082031 "/>
<path style=" stroke:none;fill-rule:nonzero;fill:rgb(0%,0.799561%,7.099915%);fill-opacity:1;" d="M 199.859375 202.398438 L 205.734375 202.398438 L 205.734375 218.957031 C 205.734375 218.957031 205.234375 225.898438 196.671875 225.898438 L 186.109375 225.898438 L 186.109375 220.398438 L 196.109375 220.398438 C 196.109375 220.398438 199.734375 220.207031 199.734375 217.707031 C 199.734375 215.207031 199.859375 202.398438 199.859375 202.398438 "/>
<path style=" stroke:none;fill-rule:nonzero;fill:rgb(0%,0.799561%,7.099915%);fill-opacity:1;" d="M 186.914063 217.957031 L 192.546875 217.957031 L 192.546875 202.332031 L 182.289063 202.332031 C 182.289063 202.332031 175.984375 202.332031 175.984375 208.582031 L 175.984375 213.207031 L 159.960938 213.207031 C 159.960938 213.207031 151.5 214.273438 151.5 203.398438 L 145.421875 203.398438 C 145.421875 203.398438 147.875 217.941406 156.355469 217.957031 C 165.167969 217.976563 181.609375 217.957031 181.609375 217.957031 L 181.609375 210.355469 C 181.609375 210.355469 181.253906 208.355469 182.90625 207.3125 C 183.703125 206.8125 185.332031 206.832031 187.003906 206.832031 L 186.914063 217.957031 "/>
<path style=" stroke:none;fill-rule:nonzero;fill:rgb(0%,0.799561%,7.099915%);fill-opacity:1;" d="M 130.332031 207.523438 C 126.894531 207.523438 126.644531 211.042969 126.644531 211.042969 L 126.644531 213.628906 L 135.609375 213.628906 L 135.609375 207.558594 C 135.609375 207.558594 133.765625 207.523438 130.332031 207.523438 Z M 132.605469 225.839844 L 120.71875 225.839844 L 120.71875 221.644531 C 120.71875 221.644531 126.675781 221.644531 130.539063 221.644531 C 134.402344 221.644531 135.648438 218.671875 135.648438 218.671875 L 135.648438 217.214844 L 122.773438 217.214844 L 122.773438 210.089844 C 122.773438 210.089844 123.398438 203.339844 130.773438 203.339844 C 138.148438 203.339844 140.523438 203.339844 140.523438 203.339844 L 140.523438 218.671875 C 140.578125 224.644531 132.605469 225.839844 132.605469 225.839844 "/>
</g>
</svg>
